M48
; DRILL file {KiCad 9.0.2} date 2025-06-09T15:28:03-0400
; FORMAT={-:-/ absolute / inch / decimal}
; #@! TF.CreationDate,2025-06-09T15:28:03-04:00
; #@! TF.GenerationSoftware,Kicad,Pcbnew,9.0.2
; #@! TF.FileFunction,Plated,1,2,PTH
FMAT,2
INCH
; #@! TA.AperFunction,Plated,PTH,ComponentDrill
T1C0.0315
; #@! TA.AperFunction,Plated,PTH,ComponentDrill
T2C0.0354
; #@! TA.AperFunction,Plated,PTH,ComponentDrill
T3C0.0390
; #@! TA.AperFunction,Plated,PTH,ComponentDrill
T4C0.0394
; #@! TA.AperFunction,Plated,PTH,ComponentDrill
T5C0.0400
; #@! TA.AperFunction,Plated,PTH,ComponentDrill
T6C0.0433
; #@! TA.AperFunction,Plated,PTH,ComponentDrill
T7C0.0728
%
G90
G05
T1
X3.3215Y-3.7945
X3.3215Y-4.0945
X3.6955Y-3.7945
X3.6955Y-4.0945
X4.0695Y-3.7945
X4.0695Y-4.0945
X4.0945Y-2.8346
X4.1732Y-2.8346
X4.7585Y-3.3146
X4.7585Y-3.6146
X5.4868Y-3.9323
X5.4868Y-4.2323
X5.91Y-3.4031
X5.91Y-3.7031
X6.0281Y-3.4008
X6.0281Y-3.7008
X6.1364Y-3.4008
X6.1364Y-3.7008
X6.1463Y-2.7756
X6.1463Y-2.8543
X6.3112Y-3.3661
X6.3136Y-2.8913
X6.3136Y-3.1913
X6.4415Y-2.8913
X6.4415Y-3.1913
X6.5793Y-3.0118
X6.599Y-3.1398
X6.599Y-3.2382
X6.6112Y-3.3661
X6.6581Y-2.7738
X6.6581Y-2.8526
X6.6778Y-3.0118
X8.0557Y-2.8937
X8.1541Y-2.8937
X8.2624Y-2.2933
X8.2624Y-2.3917
X8.3683Y-2.2638
X8.6683Y-2.2638
T2
X3.0837Y-3.9567
X3.0837Y-4.2323
X3.1837Y-3.9567
X3.1837Y-4.2323
X3.4577Y-3.9567
X3.4577Y-4.2323
X3.5577Y-3.9567
X3.5577Y-4.2323
X3.8317Y-3.9567
X3.8317Y-4.2323
X3.9317Y-3.9567
X3.9317Y-4.2323
X4.9646Y-3.9173
X4.9646Y-4.2323
X5.0646Y-3.9173
X5.0646Y-4.2323
X5.2506Y-3.9173
X5.2506Y-4.2323
X5.3506Y-3.9173
X5.3506Y-4.2323
X8.8425Y-2.2638
X8.9425Y-2.2638
T3
X6.3823Y-3.7825
X6.4611Y-3.7825
X6.5398Y-3.7825
X6.6186Y-3.7825
X6.6973Y-3.7825
X6.776Y-3.7825
T4
X3.4386Y-2.8337
X3.5386Y-2.8337
X3.6386Y-2.8337
X5.6344Y-3.9453
X5.6344Y-4.0453
X5.9577Y-3.1801
X6.0577Y-3.1801
T5
X9.1514Y-3.313
X9.1514Y-3.813
T6
X3.3683Y-3.1177
X3.3683Y-3.2177
X3.3683Y-3.3177
X3.3683Y-3.4177
X3.6683Y-3.1177
X3.6683Y-3.2177
X3.6683Y-3.3177
X3.6683Y-3.4177
X4.3228Y-2.5272
X4.3228Y-2.6272
X4.3228Y-2.7272
X4.3228Y-2.8272
X4.6228Y-2.5272
X4.6228Y-2.6272
X4.6228Y-2.7272
X4.6228Y-2.8272
X4.9508Y-3.1963
X4.9508Y-3.2963
X4.9508Y-3.3963
X4.9508Y-3.4963
X5.2508Y-3.1963
X5.2508Y-3.2963
X5.2508Y-3.3963
X5.2508Y-3.4963
X6.1437Y-2.3106
X6.1437Y-2.4106
X6.1437Y-2.5106
X6.1437Y-2.6106
X6.4437Y-2.3106
X6.4437Y-2.4106
X6.4437Y-2.5106
X6.4437Y-2.6106
X6.6555Y-2.3106
X6.6555Y-2.4106
X6.6555Y-2.5106
X6.6555Y-2.6106
X6.7419Y-3.135
X6.7419Y-3.235
X6.7419Y-3.335
X6.7419Y-3.435
X6.9555Y-2.3106
X6.9555Y-2.4106
X6.9555Y-2.5106
X6.9555Y-2.6106
X7.0419Y-3.135
X7.0419Y-3.235
X7.0419Y-3.335
X7.0419Y-3.435
X8.0602Y-2.3409
X8.0602Y-2.4409
X8.0602Y-2.5409
T7
X4.9118Y-2.9213
X4.9969Y-2.4213
X5.0969Y-2.9213
X5.1969Y-2.4213
X5.2819Y-2.9213
X8.4023Y-2.5054
X8.4023Y-2.6905
X8.4023Y-2.8755
X8.5523Y-2.5054
X8.5523Y-2.6905
X8.5523Y-2.8755
X9.0523Y-2.5905
X9.0523Y-2.7905
M30
